#!OML:ASF H:\ManfredETheater\Project 1\Capture day 1\Session 1\subject.ASF
:FULLY-SPECIFIED
:DEGREES
152
root 1.01387 18.0361 -12.5482 -174.634 -11.4337 -181.407
lowerback 7.21739 -1.63694 -2.24166
upperback -3.09102 -2.34943 1.46796
thorax -7.14635 -1.02246 3.11402
lowerneck -15.8018 -3.22629 -4.23868
upperneck 9.09598 -3.72521 2.34497
head 5.43424 -1.79863 1.07781
rclavicle 5.30879e-014 -3.18055e-015
rhumerus -42.3523 1.96105 -82.7706
rradius 67.0038
rwrist 1.72118
rhand -27.8288 3.63915
rfingers 7.12502
rthumb -1.22055 -26.3371
lclavicle 5.30879e-014 -3.18055e-015
lhumerus -38.8411 -7.2743 94.372
lradius 48.8319
lwrist -6.43791
lhand -28.1342 -10.3894
lfingers 7.12502
lthumb -1.51555 19.5849
rfemur -24.9999 -0.439106 21.2004
rtibia 35.2516
rfoot -5.9057 -16.186
rtoes -11.5583
lfemur -25.748 -7.97708 -22.6127
ltibia 40.3259
lfoot -24.5904 -3.00597
ltoes -13.6879
153
root 1.01753 18.037 -12.6291 -174.613 -11.3547 -181.276
lowerback 7.15068 -1.56311 -2.27132
upperback -3.06499 -2.24995 1.50644
thorax -7.08433 -0.973049 3.15506
lowerneck -15.6645 -3.25218 -4.22601
upperneck 9.11811 -3.77586 2.40323
head 5.42154 -1.81934 1.09102
rclavicle -1.61016e-014 9.54166e-015
rhumerus -42.2671 2.33919 -83.0249
rradius 66.9149
rwrist 1.57726
rhand -27.7187 3.5882
rfingers 7.12502
rthumb -1.11421 -26.3886
lclavicle -1.61016e-014 9.54166e-015
lhumerus -38.979 -6.83447 94.111
lradius 48.0356
lwrist -6.28301
lhand -28.0137 -10.0963
lfingers 7.12502
lthumb -1.39913 19.8788
rfemur -24.7191 -0.388834 21.4253
rtibia 35.185
rfoot -6.1663 -16.2177
rtoes -11.7192
lfemur -26.045 -7.93543 -22.3991
ltibia 40.0031
lfoot -23.8893 -3.62563
ltoes -14.399
154
root 1.02017 18.0361 -12.7088 -174.615 -11.2576 -181.124
lowerback 7.08511 -1.49115 -2.2798
upperback -3.03506 -2.15064 1.54982
thorax -7.01959 -0.924711 3.18953
lowerneck -15.5331 -3.26917 -4.20572
upperneck 9.14164 -3.81555 2.4576
head 5.40965 -1.83477 1.10276
rclavicle -1.42007e-014 1.19271e-015
rhumerus -42.153 2.68375 -83.2773
rradius 66.7832
rwrist 1.41522
rhand -27.5926 3.51388
rfingers 7.12502
rthumb -0.992461 -26.4636
lclavicle -1.42007e-014 1.19271e-015
lhumerus -39.1071 -6.33773 93.8103
lradius 47.2327
lwrist -6.28319
lhand -27.9168 -9.84426
lfingers 7.12502
lthumb -1.3056 20.1315
rfemur -24.4147 -0.335337 21.6665
rtibia 35.1066
rfoot -6.43782 -16.2252
rtoes -11.8547
lfemur -26.2835 -7.87582 -22.1695
ltibia 39.7481
lfoot -23.1033 -4.29947
ltoes -14.7612
155
root 1.02204 18.0336 -12.7872 -174.636 -11.1489 -180.949
lowerback 7.01922 -1.42328 -2.26642
upperback -3.00385 -2.05446 1.5992
thorax -6.95376 -0.878872 3.21855
lowerneck -15.3925 -3.27877 -4.17808
upperneck 9.15116 -3.84646 2.50701
head 5.3913 -1.84618 1.11281
rclavicle -1.36664e-016 1.94809e-014
rhumerus -42.0101 2.9998 -83.528
rradius 66.6038
rwrist 1.24334
rhand -27.451 3.41615
rfingers 7.12502
rthumb -0.855686 -26.5619
lclavicle -1.36664e-016 1.94809e-014
lhumerus -39.2293 -5.78763 93.4708
lradius 46.4227
lwrist -6.43624
lhand -27.8326 -9.61884
lfingers 7.12502
lthumb -1.22422 20.3574
rfemur -24.0907 -0.271163 21.925
rtibia 35.0154
rfoot -6.72193 -16.2207
rtoes -11.9751
lfemur -26.4652 -7.799 -21.9239
ltibia 39.5622
lfoot -22.2291 -4.97128
ltoes -14.6676
156
root 1.02279 18.0295 -12.8645 -174.672 -11.0254 -180.757
lowerback 6.94748 -1.35812 -2.23345
upperback -2.97207 -1.95996 1.65287
thorax -6.88445 -0.834794 3.24123
lowerneck -15.2447 -3.28036 -4.14278
upperneck 9.15059 -3.86759 2.55035
head 5.36799 -1.85313 1.12078
rclavicle 5.23052e-015 1.11319e-014
rhumerus -41.8426 3.28354 -83.7749
rradius 66.3789
rwrist 1.06993
rhand -27.2882 3.29463
rfingers 7.12502
rthumb -0.6984 -26.684
lclavicle 5.23052e-015 1.11319e-014
lhumerus -39.3476 -5.18976 93.0966
lradius 45.6066
lwrist -6.71672
lhand -27.7426 -9.3996
lfingers 7.12502
lthumb -1.13732 20.5771
rfemur -23.7488 -0.19627 22.1932
rtibia 34.9109
rfoot -7.0203 -16.2023
rtoes -12.0727
lfemur -26.5817 -7.70838 -21.6728
ltibia 39.447
lfoot -21.2843 -5.58155
ltoes -14.0109
157
root 1.0223 18.0236 -12.9406 -174.716 -10.8884 -180.56
lowerback 6.86487 -1.29557 -2.18957
upperback -2.94072 -1.86803 1.7072
thorax -6.80956 -0.792619 3.25859
lowerneck -15.0967 -3.27599 -4.11391
upperneck 9.14767 -3.88053 2.60329
head 5.34394 -1.85571 1.13359
rclavicle -1.44864e-014 5.1684e-015
rhumerus -41.6501 3.52969 -84.0158
rradius 66.1102
rwrist 0.895401
rhand -27.1019 3.15496
rfingers 7.12502
rthumb -0.518512 -26.8242
lclavicle -1.44864e-014 5.1684e-015
lhumerus -39.4648 -4.55118 92.6913
lradius 44.7895
lwrist -7.08907
lhand -27.6379 -9.17018
lfingers 7.12502
lthumb -1.03622 20.807
rfemur -23.3965 -0.115247 22.4584
rtibia 34.7967
rfoot -7.34346 -16.1714
rtoes -12.1217
lfemur -26.6261 -7.61187 -21.4309
ltibia 39.4004
lfoot -20.3108 -6.09952
ltoes -12.7069
